<svg width="260" height="48" viewBox="0 0 260 48" fill="none" xmlns="http://www.w3.org/2000/svg">
<g clip-path="url(#clip0_8311_51117)">
<path fill-rule="evenodd" clip-rule="evenodd" d="M29.7661 16.3573C30.7175 16.7034 31.6386 17.1489 32.5122 17.7026L32.5295 17.7026C33.442 18.2692 34.3026 18.9568 35.0941 19.7483C35.8855 20.5397 36.5689 21.4047 37.1398 22.3129C36.7162 22.9528 36.2579 23.61 35.7693 24.2888C34.9003 25.4952 33.9189 26.7534 32.8164 28.0721C32.263 28.7293 31.675 29.4038 31.0611 30.0869C30.1099 31.1419 29.0938 32.2185 27.987 33.3253C26.8801 34.4322 25.7992 35.4525 24.7485 36.3994C23.6933 35.4479 22.6164 34.4315 21.5092 33.3244C20.402 32.2172 19.3813 31.136 18.4342 30.085C17.8157 29.3974 17.2275 28.7227 16.6739 28.0654C15.5753 26.7506 14.5935 25.4921 13.7241 24.2856C13.2311 23.6109 12.7769 22.9492 12.3531 22.3092C12.9194 21.3969 13.6068 20.5364 14.3981 19.7452C15.1893 18.954 16.0497 18.2666 16.9621 17.7002C17.8398 17.1512 18.7565 16.7016 19.7078 16.3558C20.7715 15.9668 21.8741 15.7032 22.9941 15.5693C24.153 15.4311 25.3206 15.4313 26.4795 15.5698C27.5995 15.704 28.7022 15.968 29.7661 16.3573ZM25.8825 18.7445L25.7018 22.7971L29.3118 21.3642L30.0092 23.6209L26.288 24.6926L28.6995 27.8598L26.8736 29.2547L24.7542 25.8642L22.6347 29.2548L20.8088 27.8598L23.2204 24.6926L19.4988 23.6209L20.1963 21.3642L23.8062 22.7971L23.6255 18.7445L25.8825 18.7445Z" fill="#F8FAFC"/>
<path fill-rule="evenodd" clip-rule="evenodd" d="M47.0976 9.21738L45.6142 7.73396L45.6401 7.72531C43.4344 5.51965 39.054 5.88655 33.3118 8.75697C31.2839 9.76421 29.1565 11.0525 26.9946 12.5656C26.8346 12.6737 26.6703 12.7861 26.5147 12.8985C26.8779 12.9332 27.2368 12.9808 27.6001 13.0414C29.265 13.3141 30.891 13.8332 32.4348 14.5988C37.6105 11.3867 41.8437 10.0771 44.019 10.8169C44.7587 12.9921 43.4491 17.2253 40.2413 22.4052C39.8997 22.9543 39.5409 23.5121 39.1561 24.0785C38.9357 24.4028 38.7152 24.727 38.486 25.0513C38.1964 25.4621 37.8894 25.8815 37.5781 26.3052C36.6702 27.5331 35.6715 28.7913 34.5863 30.0755C34.0242 30.7413 33.4362 31.4158 32.8223 32.0903C31.8884 33.1193 30.907 34.1526 29.8693 35.1903C28.8316 36.2279 27.7939 37.2137 26.7692 38.1433C26.0947 38.7572 25.4202 39.3452 24.7501 39.9116C23.4703 41.0011 22.2077 41.9954 20.9798 42.9033L24.7553 45.9698C25.3347 45.5288 25.9097 45.0748 26.4934 44.6036C27.1723 44.0631 27.8424 43.4968 28.5213 42.9131C29.1958 42.3251 29.8659 41.7242 30.5447 41.1059C31.4354 40.2844 32.3261 39.4284 33.2038 38.5507C34.0815 37.673 34.9332 36.7867 35.759 35.8917C36.3816 35.2172 36.9783 34.5427 37.5663 33.8682C38.1499 33.1894 38.712 32.5149 39.2611 31.8361C39.728 31.2567 40.1863 30.6774 40.6273 30.098C41.0812 29.5056 41.5093 28.9219 41.9286 28.3382C41.9827 28.2582 42.0378 28.1793 42.0929 28.1004C42.148 28.0215 42.2032 27.9426 42.2572 27.8626C43.766 25.6964 45.0544 23.5691 46.0659 21.5455C48.9364 15.8034 49.3033 11.423 47.0976 9.21738Z" fill="#F8FAFC"/>
<path d="M22.9725 12.9102C22.6093 12.9447 22.2503 12.9922 21.8871 13.0527C20.2223 13.3249 18.5922 13.8479 17.0528 14.6087C11.8762 11.395 7.64258 10.0842 5.46759 10.8233C4.72846 12.9983 6.03934 17.2318 9.25303 22.4084C9.5904 22.9619 9.95373 23.5155 10.3343 24.0863C10.5506 24.4064 10.7755 24.735 11.0047 25.0594C11.2989 25.4745 11.5973 25.894 11.913 26.3135C12.8213 27.5417 13.8161 28.8046 14.906 30.0847C15.4682 30.7507 16.0564 31.4254 16.6706 32.1C17.6004 33.125 18.5865 34.1629 19.6245 35.2009C20.6625 36.2389 21.6961 37.2206 22.7254 38.1548C21.4067 39.2573 20.1485 40.2387 18.9465 41.1033C18.0512 40.2773 17.1646 39.4253 16.2867 38.5473C15.4087 37.6694 14.5524 36.7785 13.7306 35.8876C13.1122 35.2086 12.511 34.5383 11.9271 33.8593C11.3389 33.1846 10.7723 32.5056 10.2317 31.8353C9.76028 31.2515 9.30182 30.6719 8.86066 30.0924C8.41085 29.5043 7.97834 28.9161 7.56313 28.3366C7.45067 28.1809 7.33822 28.0166 7.23009 27.8566C5.71628 25.6943 4.42733 23.5666 3.41948 21.5384C0.547324 15.7954 0.179111 11.4149 2.38415 9.20991L3.86715 7.72693C6.0722 5.52191 10.4527 5.89012 16.1958 8.76224C18.2197 9.7744 20.3474 11.0633 22.5141 12.5728C22.6741 12.6809 22.8341 12.7977 22.9941 12.9058L22.9725 12.9102Z" fill="#F8FAFC"/>
</g>
<path d="M68.533 26.12C64.173 25.24 61.013 23.04 61.013 18.52C61.013 13.44 65.053 10.4 71.093 10.4C78.453 10.4 81.413 14.84 81.733 19.68H76.933C76.853 16.88 75.173 14.48 70.933 14.48C67.733 14.48 65.813 15.88 65.813 18.16C65.813 20.12 67.293 21.08 69.853 21.64L73.973 22.56C78.333 23.44 81.493 25.76 81.493 30.28C81.493 35.36 77.453 38.4 71.333 38.4C64.013 38.4 61.013 33.96 60.693 29.12H65.453C65.573 31.92 67.293 34.32 71.533 34.32C74.773 34.32 76.693 32.96 76.693 30.64C76.693 28.68 75.253 27.6 72.653 27.04L68.533 26.12ZM85.043 46V18H89.643V21.56C91.003 19.04 93.203 17.6 96.163 17.6C100.803 17.6 104.563 21.16 104.563 28C104.563 34.84 100.803 38.4 96.163 38.4C93.283 38.4 91.123 37.04 89.763 34.64V46H85.043ZM89.763 28.92C89.763 32.36 91.563 34.56 94.683 34.56C97.763 34.56 99.723 32.48 99.723 28.52V27.52C99.723 23.44 97.763 21.28 94.683 21.28C91.563 21.28 89.763 23.52 89.763 27.12V28.92ZM113.497 38.4C109.457 38.4 107.337 36.04 107.337 33.04C107.337 29.6 110.057 27.76 113.137 26.96L119.737 25.32V24.96C119.737 22.28 118.337 21.28 116.057 21.28C113.617 21.28 112.257 22.48 112.177 24.92H107.417C107.737 20.08 111.377 17.6 116.257 17.6C121.537 17.6 124.457 20.6 124.457 25.52V38H119.817V34.68C118.497 37.04 116.497 38.4 113.497 38.4ZM112.057 32.44C112.057 34.16 113.297 35 115.177 35C117.857 35 119.737 33.2 119.737 30.28V28.44L114.977 29.6C112.977 30.08 112.057 31 112.057 32.44ZM128.246 38V18H132.846V21.6C134.126 18.76 136.126 17.8 138.526 17.8H139.366V22.48H136.726C134.206 22.48 132.966 23.56 132.966 26.48V38H128.246ZM153.876 38L146.716 28.72V38H141.996V9.56H146.716V26.68L153.836 18H159.796L151.356 27.6L159.996 38H153.876ZM167.551 46L170.111 37.6H167.151L160.831 18H165.751L169.551 30.24L170.911 34.96H170.991L172.351 30.24L176.031 18H180.911L172.311 46H167.551ZM190.123 38V10.8H194.843V21.88H207.923V10.8H212.643V38H207.923V26.24H194.843V38H190.123ZM223.125 38.4C219.325 38.4 216.525 35.84 216.525 30.84V18H221.245V30.36C221.245 33.04 222.565 34.44 225.045 34.44C227.605 34.44 229.485 32.92 229.485 29.28V18H234.205V38H229.565V34.36C228.285 36.6 226.325 38.4 223.125 38.4ZM249.249 38.4C246.289 38.4 244.089 36.96 242.729 34.44V38H238.129V9.56H242.849V21.36C244.209 18.96 246.369 17.6 249.249 17.6C253.889 17.6 257.649 21.16 257.649 28C257.649 34.84 253.889 38.4 249.249 38.4ZM242.849 28.88C242.849 32.48 244.649 34.72 247.769 34.72C250.849 34.72 252.809 32.56 252.809 28.48V27.48C252.809 23.52 250.849 21.44 247.769 21.44C244.649 21.44 242.849 23.64 242.849 27.08V28.88Z" fill="#F8FAFC"/>
<defs>
<clipPath id="clip0_8311_51117">
<rect width="48" height="48" fill="white" transform="translate(0.666504)"/>
</clipPath>
</defs>
</svg>
