<svg width="32" height="32" viewBox="0 0 32 32" fill="none" xmlns="http://www.w3.org/2000/svg">
<g clip-path="url(#clip0_8315_35290)">
<path fill-rule="evenodd" clip-rule="evenodd" d="M18.8724 10.695C19.4894 10.9195 20.0868 11.2084 20.6534 11.5675L20.6646 11.5675C21.2564 11.9349 21.8146 12.3809 22.3279 12.8942C22.8412 13.4075 23.2843 13.9685 23.6546 14.5575C23.3798 14.9725 23.0826 15.3987 22.7658 15.839C22.2022 16.6213 21.5657 17.4373 20.8507 18.2926C20.4918 18.7188 20.1104 19.1563 19.7122 19.5993C19.0954 20.2835 18.4364 20.9817 17.7186 21.6996C17.0007 22.4174 16.2997 23.0791 15.6183 23.6932C14.9339 23.0761 14.2355 22.417 13.5174 21.6989C12.7994 20.9809 12.1374 20.2797 11.5231 19.5981C11.122 19.1521 10.7405 18.7146 10.3815 18.2882C9.669 17.4356 9.03226 16.6194 8.46844 15.8368C8.14866 15.3993 7.85413 14.9702 7.57922 14.5551C7.94652 13.9634 8.39236 13.4054 8.9055 12.8922C9.41865 12.3791 9.97668 11.9333 10.5684 11.566C11.1376 11.2099 11.7322 10.9183 12.3491 10.694C13.039 10.4417 13.7541 10.2708 14.4805 10.1839C15.232 10.0943 15.9893 10.0944 16.7409 10.1843C17.4673 10.2713 18.1824 10.4425 18.8724 10.695ZM16.3538 12.2432L16.2366 14.8716L18.5778 13.9422L19.0301 15.4059L16.6168 16.1009L18.1807 18.155L16.9965 19.0596L15.622 16.8608L14.2474 19.0597L13.0632 18.155L14.6273 16.1009L12.2136 15.4059L12.666 13.9422L15.0072 14.8716L14.89 12.2432L16.3538 12.2432Z" fill="#F8FAFC"/>
<path fill-rule="evenodd" clip-rule="evenodd" d="M30.113 6.06458L29.1509 5.10251L29.1677 5.09691C27.7372 3.66643 24.8963 3.90438 21.1722 5.76598C19.857 6.41923 18.4773 7.25474 17.0752 8.23609C16.9715 8.30619 16.8649 8.37909 16.764 8.45199C16.9996 8.47446 17.2323 8.50534 17.4679 8.54464C18.5477 8.72148 19.6022 9.05817 20.6035 9.55471C23.9601 7.4715 26.7056 6.62216 28.1163 7.10193C28.5961 8.51264 27.7468 11.2581 25.6663 14.6175C25.4448 14.9736 25.2121 15.3354 24.9626 15.7027C24.8196 15.913 24.6766 16.1233 24.528 16.3336C24.3401 16.6 24.141 16.872 23.9391 17.1468C23.3503 17.9432 22.7026 18.7592 21.9988 19.592C21.6343 20.0239 21.2529 20.4613 20.8548 20.8987C20.2491 21.5661 19.6126 22.2363 18.9396 22.9092C18.2666 23.5822 17.5936 24.2215 16.9291 24.8244C16.4916 25.2226 16.0542 25.6039 15.6195 25.9712C14.7895 26.6778 13.9707 27.3227 13.1743 27.9115L15.6229 29.9002C15.9987 29.6142 16.3716 29.3198 16.7502 29.0142C17.1905 28.6637 17.6251 28.2964 18.0653 27.9179C18.5028 27.5365 18.9374 27.1468 19.3777 26.7458C19.9553 26.213 20.533 25.6578 21.1022 25.0886C21.6714 24.5194 22.2238 23.9446 22.7594 23.3641C23.1632 22.9267 23.5501 22.4893 23.9315 22.0518C24.31 21.6116 24.6745 21.1741 25.0306 20.7339C25.3334 20.3581 25.6307 19.9824 25.9167 19.6066C26.2111 19.2225 26.4887 18.8439 26.7606 18.4654C26.7957 18.4135 26.8314 18.3623 26.8672 18.3111C26.9029 18.2599 26.9387 18.2088 26.9737 18.1569C27.9523 16.752 28.7878 15.3723 29.4439 14.06C31.3055 10.3359 31.5435 7.49506 30.113 6.06458Z" fill="#F8FAFC"/>
<path d="M14.4667 8.45953C14.2311 8.48193 13.9983 8.51274 13.7627 8.55197C12.683 8.72849 11.6258 9.06767 10.6275 9.56111C7.2702 7.4769 4.52449 6.62675 3.1139 7.1061C2.63454 8.51667 3.48471 11.2623 5.56894 14.6196C5.78774 14.9786 6.02337 15.3376 6.27022 15.7078C6.41048 15.9154 6.55634 16.1285 6.70501 16.3389C6.89576 16.6081 7.08931 16.8802 7.29407 17.1523C7.88313 17.9488 8.52829 18.7678 9.23514 19.598C9.59979 20.03 9.98126 20.4675 10.3796 20.9051C10.9826 21.5698 11.6221 22.243 12.2953 22.9161C12.9685 23.5893 13.6389 24.226 14.3064 24.8319C13.4512 25.5469 12.6352 26.1834 11.8556 26.7441C11.275 26.2084 10.7 25.6558 10.1306 25.0865C9.56119 24.5171 9.00582 23.9393 8.47288 23.3615C8.07177 22.9211 7.68188 22.4864 7.30321 22.046C6.92174 21.6085 6.55429 21.1681 6.20366 20.7334C5.89792 20.3547 5.60058 19.9789 5.31447 19.603C5.02275 19.2216 4.74224 18.8402 4.47296 18.4643C4.40003 18.3633 4.32709 18.2568 4.25697 18.153C3.27519 16.7506 2.43925 15.3707 1.78561 14.0553C-0.0771233 10.3307 -0.315927 7.4898 1.11415 6.05974L2.07594 5.09796C3.50602 3.6679 6.347 3.9067 10.0716 5.76941C11.3842 6.42585 12.7642 7.26178 14.1693 8.24074C14.2731 8.31086 14.3769 8.3866 14.4807 8.45673L14.4667 8.45953Z" fill="#F8FAFC"/>
</g>
<defs>
<clipPath id="clip0_8315_35290">
<rect width="31.1303" height="31.1303" fill="white" transform="translate(0 0.0866699)"/>
</clipPath>
</defs>
</svg>
